<svg viewBox="0 0 1200 675" xmlns="http://www.w3.org/2000/svg" role="img" aria-label="L홈쇼핑 인사이트 리포터 사례">
  <defs>
    <linearGradient id="bg2" x1="0" y1="0" x2="1" y2="1">
      <stop offset="0" stop-color="#faf8ff"/>
      <stop offset="1" stop-color="#f0ebff"/>
    </linearGradient>
    <linearGradient id="badge2" x1="0" y1="0" x2="1" y2="1">
      <stop offset="0" stop-color="#7c3aed"/>
      <stop offset="1" stop-color="#4f46e5"/>
    </linearGradient>
    <filter id="sh2" x="-20%" y="-20%" width="140%" height="140%">
      <feDropShadow dx="0" dy="14" stdDeviation="22" flood-color="#3b0a6e" flood-opacity="0.14"/>
    </filter>
  </defs>
  <rect width="1200" height="675" fill="url(#bg2)"/>
  <circle cx="1080" cy="90" r="220" fill="#7c3aed" opacity="0.06"/>
  <circle cx="140" cy="620" r="180" fill="#4f46e5" opacity="0.05"/>

  <text x="92" y="120" font-family="system-ui,'Malgun Gothic',sans-serif" font-size="24" font-weight="700" letter-spacing="3" fill="#6d28d9">CASE STUDY · 이커머스</text>
  <rect x="92" y="150" width="96" height="96" rx="24" fill="url(#badge2)"/>
  <text x="140" y="216" text-anchor="middle" font-family="system-ui,sans-serif" font-size="56" font-weight="800" fill="#ffffff">L</text>
  <text x="92" y="330" font-family="system-ui,'Malgun Gothic',sans-serif" font-size="46" font-weight="800" fill="#0f172a">인사이트 리포트를</text>
  <text x="92" y="388" font-family="system-ui,'Malgun Gothic',sans-serif" font-size="46" font-weight="800" fill="#6d28d9">스스로 쓰는 AI</text>
  <rect x="92" y="440" width="330" height="52" rx="26" fill="#ede9fe"/>
  <text x="118" y="474" font-family="system-ui,'Malgun Gothic',sans-serif" font-size="24" font-weight="700" fill="#5b21b6">보고서 작성 자동화</text>

  <!-- motif: report window -->
  <g filter="url(#sh2)">
    <rect x="628" y="150" width="484" height="392" rx="28" fill="#ffffff"/>
  </g>
  <rect x="628" y="150" width="484" height="60" rx="28" fill="#7c3aed"/>
  <rect x="628" y="182" width="484" height="28" fill="#7c3aed"/>
  <text x="660" y="189" font-family="system-ui,'Malgun Gothic',sans-serif" font-size="21" font-weight="700" fill="#ffffff">트렌드 · 인사이트 보고서</text>
  <!-- bars + trend line -->
  <g>
    <rect x="664" y="360" width="44" height="120" rx="8" fill="#ddd6fe"/>
    <rect x="726" y="320" width="44" height="160" rx="8" fill="#c4b5fd"/>
    <rect x="788" y="392" width="44" height="88" rx="8" fill="#ddd6fe"/>
    <rect x="850" y="300" width="44" height="180" rx="8" fill="#a78bfa"/>
    <polyline points="686,344 748,300 810,372 872,284" fill="none" stroke="#7c3aed" stroke-width="4" stroke-linecap="round" stroke-linejoin="round"/>
    <circle cx="686" cy="344" r="6" fill="#7c3aed"/><circle cx="748" cy="300" r="6" fill="#7c3aed"/><circle cx="810" cy="372" r="6" fill="#7c3aed"/><circle cx="872" cy="284" r="6" fill="#7c3aed"/>
  </g>
  <!-- ranking rows -->
  <g>
    <rect x="924" y="250" width="156" height="230" rx="14" fill="#f5f3ff" stroke="#ede9fe"/>
    <rect x="942" y="270" width="24" height="24" rx="6" fill="#7c3aed"/><rect x="978" y="276" width="84" height="12" rx="6" fill="#c4b5fd"/>
    <rect x="942" y="312" width="24" height="24" rx="6" fill="#a78bfa"/><rect x="978" y="318" width="84" height="12" rx="6" fill="#ddd6fe"/>
    <rect x="942" y="354" width="24" height="24" rx="6" fill="#c4b5fd"/><rect x="978" y="360" width="70" height="12" rx="6" fill="#ddd6fe"/>
    <rect x="942" y="396" width="24" height="24" rx="6" fill="#ddd6fe"/><rect x="978" y="402" width="76" height="12" rx="6" fill="#ede9fe"/>
    <rect x="942" y="438" width="24" height="24" rx="6" fill="#ede9fe"/><rect x="978" y="444" width="60" height="12" rx="6" fill="#ede9fe"/>
  </g>
</svg>
