<svg viewBox="0 0 1200 675" xmlns="http://www.w3.org/2000/svg" role="img" aria-label="S사 멀티모달 RAG Editor 사례">
  <defs>
    <linearGradient id="bg5" x1="0" y1="0" x2="1" y2="1">
      <stop offset="0" stop-color="#f2fbff"/>
      <stop offset="1" stop-color="#e4f6ff"/>
    </linearGradient>
    <linearGradient id="badge5" x1="0" y1="0" x2="1" y2="1">
      <stop offset="0" stop-color="#06b6d4"/>
      <stop offset="1" stop-color="#2563eb"/>
    </linearGradient>
    <filter id="sh5" x="-20%" y="-20%" width="140%" height="140%">
      <feDropShadow dx="0" dy="14" stdDeviation="22" flood-color="#083344" flood-opacity="0.14"/>
    </filter>
  </defs>
  <rect width="1200" height="675" fill="url(#bg5)"/>
  <circle cx="1080" cy="90" r="220" fill="#06b6d4" opacity="0.06"/>
  <circle cx="140" cy="620" r="180" fill="#2563eb" opacity="0.05"/>

  <text x="92" y="120" font-family="system-ui,'Malgun Gothic',sans-serif" font-size="24" font-weight="700" letter-spacing="3" fill="#0891b2">CASE STUDY · IT 서비스</text>
  <rect x="92" y="150" width="96" height="96" rx="24" fill="url(#badge5)"/>
  <text x="140" y="216" text-anchor="middle" font-family="system-ui,sans-serif" font-size="56" font-weight="800" fill="#ffffff">S</text>
  <text x="92" y="330" font-family="system-ui,'Malgun Gothic',sans-serif" font-size="46" font-weight="800" fill="#0f172a">문서·이미지·표까지</text>
  <text x="92" y="388" font-family="system-ui,'Malgun Gothic',sans-serif" font-size="46" font-weight="800" fill="#0891b2">멀티모달 RAG Editor</text>
  <rect x="92" y="440" width="330" height="52" rx="26" fill="#cffafe"/>
  <text x="118" y="474" font-family="system-ui,'Malgun Gothic',sans-serif" font-size="24" font-weight="700" fill="#0e7490">반복 문의 90% 자동화</text>

  <!-- motif: multimodal inputs -> editor -->
  <g filter="url(#sh5)">
    <rect x="628" y="150" width="484" height="392" rx="28" fill="#ffffff"/>
  </g>
  <circle cx="664" cy="188" r="7" fill="#f87171"/><circle cx="688" cy="188" r="7" fill="#fbbf24"/><circle cx="712" cy="188" r="7" fill="#34d399"/>
  <!-- input chips -->
  <g>
    <rect x="656" y="228" width="150" height="52" rx="12" fill="#ecfeff" stroke="#a5f3fc"/>
    <rect x="672" y="246" width="16" height="18" rx="3" fill="#06b6d4"/>
    <rect x="700" y="248" width="90" height="12" rx="6" fill="#67e8f9"/>
  </g>
  <g>
    <rect x="656" y="292" width="150" height="52" rx="12" fill="#ecfeff" stroke="#a5f3fc"/>
    <rect x="672" y="308" width="20" height="18" rx="3" fill="#0891b2"/><circle cx="678" cy="314" r="2.5" fill="#ecfeff"/><path d="M672 322 l6 -6 l6 6" stroke="#ecfeff" stroke-width="2" fill="none"/>
    <rect x="700" y="312" width="90" height="12" rx="6" fill="#67e8f9"/>
  </g>
  <g>
    <rect x="656" y="356" width="150" height="52" rx="12" fill="#ecfeff" stroke="#a5f3fc"/>
    <rect x="672" y="372" width="18" height="18" rx="3" fill="#2563eb"/><line x1="672" y1="381" x2="690" y2="381" stroke="#ecfeff" stroke-width="2"/><line x1="681" y1="372" x2="681" y2="390" stroke="#ecfeff" stroke-width="2"/>
    <rect x="700" y="376" width="90" height="12" rx="6" fill="#93c5fd"/>
  </g>
  <!-- arrow -->
  <path d="M826 318 h34 m-10 -10 l10 10 l-10 10" fill="none" stroke="#06b6d4" stroke-width="5" stroke-linecap="round" stroke-linejoin="round"/>
  <!-- editor -->
  <rect x="884" y="228" width="196" height="286" rx="14" fill="#f8fafc" stroke="#e2e8f0"/>
  <rect x="884" y="228" width="196" height="36" rx="14" fill="#e0f2fe"/><rect x="884" y="250" width="196" height="14" fill="#e0f2fe"/>
  <rect x="904" y="286" width="150" height="12" rx="6" fill="#cbd5e1"/>
  <rect x="904" y="312" width="120" height="12" rx="6" fill="#cbd5e1"/>
  <rect x="904" y="338" width="140" height="12" rx="6" fill="#06b6d4"/>
  <rect x="904" y="364" width="96" height="12" rx="6" fill="#cbd5e1"/>
  <rect x="904" y="390" width="130" height="12" rx="6" fill="#cbd5e1"/>
  <rect x="904" y="416" width="70" height="12" rx="6" fill="#2563eb"/>
  <rect x="980" y="414" width="4" height="16" fill="#0891b2"/>
</svg>
