<svg viewBox="0 0 1200 675" xmlns="http://www.w3.org/2000/svg" role="img" aria-label="P사 사내 HR 챗봇 사례">
  <defs>
    <linearGradient id="bg6" x1="0" y1="0" x2="1" y2="1">
      <stop offset="0" stop-color="#f1fdf8"/>
      <stop offset="1" stop-color="#e4faf0"/>
    </linearGradient>
    <linearGradient id="badge6" x1="0" y1="0" x2="1" y2="1">
      <stop offset="0" stop-color="#10b981"/>
      <stop offset="1" stop-color="#0d9488"/>
    </linearGradient>
    <filter id="sh6" x="-20%" y="-20%" width="140%" height="140%">
      <feDropShadow dx="0" dy="14" stdDeviation="22" flood-color="#064e3b" flood-opacity="0.14"/>
    </filter>
  </defs>
  <rect width="1200" height="675" fill="url(#bg6)"/>
  <circle cx="1080" cy="90" r="220" fill="#10b981" opacity="0.06"/>
  <circle cx="140" cy="620" r="180" fill="#0d9488" opacity="0.05"/>

  <text x="92" y="120" font-family="system-ui,'Malgun Gothic',sans-serif" font-size="24" font-weight="700" letter-spacing="3" fill="#059669">CASE STUDY · 기업 내부 업무</text>
  <rect x="92" y="150" width="96" height="96" rx="24" fill="url(#badge6)"/>
  <text x="140" y="216" text-anchor="middle" font-family="system-ui,sans-serif" font-size="56" font-weight="800" fill="#ffffff">P</text>
  <text x="92" y="330" font-family="system-ui,'Malgun Gothic',sans-serif" font-size="46" font-weight="800" fill="#0f172a">묻지 않아도 알려주는</text>
  <text x="92" y="388" font-family="system-ui,'Malgun Gothic',sans-serif" font-size="46" font-weight="800" fill="#059669">사내 HR 챗봇</text>
  <rect x="92" y="440" width="330" height="52" rx="26" fill="#d1fae5"/>
  <text x="118" y="474" font-family="system-ui,'Malgun Gothic',sans-serif" font-size="24" font-weight="700" fill="#047857">24/7 자동 응대</text>

  <!-- motif: Teams-like HR chat -->
  <g filter="url(#sh6)">
    <rect x="628" y="150" width="484" height="392" rx="28" fill="#ffffff"/>
  </g>
  <rect x="628" y="150" width="484" height="62" rx="28" fill="#10b981"/>
  <rect x="628" y="184" width="484" height="28" fill="#10b981"/>
  <circle cx="668" cy="181" r="16" fill="#ffffff"/>
  <text x="668" y="187" text-anchor="middle" font-family="system-ui,sans-serif" font-size="16" font-weight="800" fill="#10b981">HR</text>
  <text x="696" y="188" font-family="system-ui,'Malgun Gothic',sans-serif" font-size="21" font-weight="700" fill="#ffffff">사내 HR 챗봇</text>
  <!-- user bubble -->
  <rect x="812" y="238" width="266" height="50" rx="16" fill="#d1fae5"/>
  <rect x="836" y="256" width="216" height="14" rx="7" fill="#6ee7b7"/>
  <!-- bot bubble -->
  <circle cx="676" cy="322" r="20" fill="#10b981"/>
  <text x="676" y="328" text-anchor="middle" font-family="system-ui,sans-serif" font-size="15" font-weight="800" fill="#ffffff">HR</text>
  <rect x="708" y="300" width="332" height="120" rx="16" fill="#f0fdf4" stroke="#dcfce7"/>
  <rect x="730" y="322" width="286" height="13" rx="6" fill="#bbf7d0"/>
  <rect x="730" y="346" width="252" height="13" rx="6" fill="#bbf7d0"/>
  <rect x="730" y="370" width="200" height="13" rx="6" fill="#86efac"/>
  <rect x="730" y="394" width="120" height="12" rx="6" fill="#059669"/>
  <!-- people row -->
  <g>
    <circle cx="676" cy="474" r="22" fill="#a7f3d0"/><circle cx="676" cy="466" r="8" fill="#059669"/><path d="M662 486 a14 12 0 0 1 28 0" fill="#059669"/>
    <circle cx="730" cy="474" r="22" fill="#6ee7b7"/><circle cx="730" cy="466" r="8" fill="#047857"/><path d="M716 486 a14 12 0 0 1 28 0" fill="#047857"/>
    <circle cx="784" cy="474" r="22" fill="#a7f3d0"/><circle cx="784" cy="466" r="8" fill="#059669"/><path d="M770 486 a14 12 0 0 1 28 0" fill="#059669"/>
    <rect x="828" y="462" width="230" height="14" rx="7" fill="#dcfce7"/>
    <rect x="828" y="486" width="170" height="12" rx="6" fill="#ecfdf5"/>
  </g>
</svg>
